<svg width="50" height="50" viewBox="0 0 50 50" fill="none" xmlns="http://www.w3.org/2000/svg">
<g clip-path="url(#clip0_51252_1448)">
<path d="M15.0001 17.9297C13.3846 17.9297 12.0704 16.6154 12.0704 15C12.0704 13.3846 13.3846 12.0703 15.0001 12.0703C16.6155 12.0703 17.9297 13.3846 17.9297 15C17.9297 16.6154 16.6155 17.9297 15.0001 17.9297ZM15.0001 13.2422C14.0308 13.2422 13.2422 14.0307 13.2422 15C13.2422 15.9693 14.0308 16.7578 15.0001 16.7578C15.9693 16.7578 16.7578 15.9693 16.7578 15C16.7578 14.0307 15.9693 13.2422 15.0001 13.2422Z" fill="#FABFB7"/>
<path d="M2.56739 18.7688C2.62253 17.5942 2.67949 16.3826 3.53771 15C2.67954 13.6174 2.62259 12.4059 2.56739 11.2312C2.52146 10.2524 2.47388 9.24029 1.97443 8.01398C1.90622 7.84641 1.91923 7.65668 2.0097 7.5C2.10017 7.34332 2.25796 7.23721 2.4372 7.21248C3.74894 7.03189 4.64923 6.56695 5.51987 6.11742C6.56466 5.57789 7.64384 5.02096 9.26882 5.07334C10.037 3.63879 11.0579 2.98371 12.0476 2.34861C12.8723 1.81939 13.7251 1.27213 14.5373 0.226465C14.6483 0.0836133 14.8191 0 15.0001 0C15.181 0 15.3518 0.0836133 15.4628 0.226523C15.6786 0.504316 15.9027 0.755273 16.148 0.993809C16.3801 1.21939 16.3853 1.59035 16.1597 1.82238C15.9343 2.05436 15.5632 2.05969 15.3312 1.8341C15.217 1.72312 15.1069 1.60992 14.9998 1.49344C14.2087 2.35418 13.4041 2.87051 12.6804 3.33492C11.7355 3.94131 10.9108 4.47082 10.2843 5.66027L10.5503 6.121C10.7121 6.40125 10.6161 6.75961 10.3358 6.92139C10.2435 6.97471 10.1428 7.00002 10.0434 7.00002C9.84093 7.00002 9.64394 6.8949 9.53542 6.70693L9.26941 6.24621C7.9262 6.1943 7.05515 6.64354 6.05753 7.15869C5.29335 7.55326 4.44398 7.99189 3.3028 8.24666C3.65279 9.36228 3.69761 10.3172 3.73798 11.1763C3.79066 12.2979 3.83689 13.2768 4.55366 14.4142H5.0857C5.40925 14.4142 5.67163 14.6765 5.67163 15.0001C5.67163 15.3237 5.40925 15.5861 5.0857 15.5861H4.5536C3.83689 16.7234 3.79066 17.7023 3.73798 18.8238C3.69767 19.6829 3.65279 20.6378 3.3028 21.7535C4.44398 22.0083 5.29335 22.4469 6.05753 22.8415C7.05515 23.3566 7.92626 23.806 9.26946 23.754L9.53548 23.2932C9.69732 23.013 10.0556 22.917 10.3359 23.0788C10.6161 23.2406 10.7122 23.5989 10.5503 23.8792L10.2843 24.34C10.9109 25.5294 11.7356 26.0589 12.6805 26.6653C13.4043 27.1297 14.2089 27.6461 15.0001 28.5069C15.7912 27.6461 16.5958 27.1297 17.3196 26.6653C18.2645 26.0589 19.0892 25.5294 19.7158 24.34L19.4498 23.8792C19.2879 23.599 19.384 23.2406 19.6642 23.0788C19.9445 22.9169 20.3028 23.013 20.4646 23.2933L20.7306 23.7541C22.0741 23.8062 22.9449 23.3568 23.9425 22.8416C24.7066 22.447 25.5561 22.0084 26.6972 21.7536C26.3473 20.638 26.3024 19.683 26.2621 18.8239C26.2094 17.7025 26.1632 16.7235 25.4464 15.5861H24.9143C24.5907 15.5861 24.3284 15.3238 24.3284 15.0002C24.3284 14.6766 24.5907 14.4142 24.9143 14.4142H25.4464C26.1631 13.2769 26.2094 12.2979 26.2621 11.1765C26.3024 10.3174 26.3473 9.36246 26.6972 8.24678C25.5561 7.99201 24.7066 7.55344 23.9425 7.15881C22.9448 6.64365 22.0738 6.1943 20.7306 6.24633L20.4646 6.70705C20.356 6.89502 20.1591 7.00014 19.9566 7.00014C19.8572 7.00014 19.7565 6.97477 19.6642 6.9215C19.3839 6.75973 19.2879 6.40137 19.4497 6.12111L19.7158 5.66027C19.6051 5.4498 19.4862 5.25521 19.3553 5.07164C19.1674 4.80814 19.2288 4.44223 19.4923 4.25443C19.7558 4.06658 20.1217 4.12793 20.3095 4.39143C20.4627 4.60641 20.6023 4.83176 20.7314 5.07346C22.3574 5.02201 23.4354 5.57807 24.4802 6.11754C25.3508 6.56713 26.2512 7.03207 27.5628 7.21266C27.7421 7.23732 27.8999 7.34344 27.9903 7.50018C28.0808 7.65686 28.0938 7.84658 28.0256 8.01416C27.5261 9.24047 27.4786 10.2526 27.4326 11.2314C27.3775 12.4061 27.3205 13.6177 26.4623 15.0002C27.3205 16.3828 27.3775 17.5943 27.4326 18.7689C27.4785 19.7477 27.5261 20.7599 28.0256 21.9862C28.0938 22.1538 28.0808 22.3435 27.9903 22.5002C27.8999 22.6569 27.7421 22.763 27.5628 22.7877C26.2512 22.9683 25.3508 23.4332 24.4802 23.8828C23.4353 24.4223 22.3569 24.9791 20.7312 24.9268C19.9629 26.3614 18.9421 27.0165 17.9525 27.6516C17.1278 28.1808 16.275 28.728 15.4628 29.7737C15.3517 29.9166 15.181 30.0002 15.0001 30.0002C14.8191 30.0002 14.6484 29.9166 14.5373 29.7737C13.7251 28.728 12.8723 28.1808 12.0476 27.6516C11.0579 27.0165 10.037 26.3614 9.26882 24.9268C7.64355 24.979 6.56472 24.4223 5.51987 23.8828C4.64923 23.4332 3.74888 22.9683 2.4372 22.7877C2.25796 22.763 2.10017 22.6569 2.0097 22.5002C1.91923 22.3434 1.90622 22.1538 1.97443 21.9862C2.47388 20.7597 2.52146 19.7476 2.56739 18.7688Z" fill="#FFD4CE"/>
<path d="M24.4348 9.22376C24.6088 9.32788 24.7166 9.51456 24.7197 9.71729C24.7513 11.7267 23.9895 13.6208 22.6589 14.9974C24.0067 16.3831 24.7514 18.2748 24.7197 20.2826C24.7165 20.4854 24.6088 20.672 24.4348 20.7762C23.2434 21.4892 21.9146 21.8533 20.5883 21.8533C19.9967 21.8533 19.4055 21.7802 18.8273 21.6338C18.3005 23.4746 17.041 25.0815 15.285 26.0588C15.1964 26.1081 15.0982 26.1328 15 26.1328C14.9019 26.1328 14.8037 26.1081 14.7151 26.0588C12.959 25.0815 11.6995 23.4746 11.1727 21.6339C10.5945 21.7802 10.0034 21.8534 9.41165 21.8533C8.08556 21.8533 6.75659 21.4892 5.56521 20.7762C5.39124 20.6721 5.28343 20.4854 5.28027 20.2827C5.24862 18.2749 5.99335 16.3832 7.34107 14.9975C6.01046 13.6209 5.24862 11.7268 5.28027 9.71735C5.28349 9.51461 5.3913 9.32793 5.56521 9.22381C7.28962 8.19169 9.31093 7.9044 11.1684 8.36846C11.6946 6.50846 12.9604 4.9177 14.715 3.94118C14.8922 3.84256 15.1077 3.84256 15.285 3.94118C17.0396 4.9177 18.3055 6.50846 18.8317 8.36852C20.6891 7.9044 22.7104 8.19169 24.4348 9.22376ZM17.5947 10.1191C17.5084 10.1689 17.4236 10.2211 17.34 10.2751C18.0945 10.6503 18.747 11.2008 19.2438 11.8733L19.8271 11.5366C20.1074 11.3747 20.4657 11.4708 20.6275 11.751C20.7893 12.0313 20.6933 12.3896 20.413 12.5514L19.8312 12.8873C20.1153 13.5346 20.2734 14.2491 20.2734 15C20.2734 15.1128 20.2694 15.2247 20.2624 15.3358C20.3508 15.2905 20.4382 15.2432 20.5243 15.1935C22.3322 14.1497 23.4687 12.2066 23.5447 10.0667C21.6536 9.06251 19.4026 9.07522 17.5947 10.1191ZM16.0033 11.023C15.6821 10.942 15.3461 10.8984 15 10.8984C14.6539 10.8984 14.3178 10.942 13.9965 11.0231C13.9893 11.0249 13.9822 11.0265 13.975 11.0281C12.2077 11.4845 10.8985 13.0922 10.8985 15C10.8985 17.2616 12.7384 19.1015 15 19.1015C17.2616 19.1015 19.1015 17.2616 19.1015 15C19.1015 13.0922 17.7923 11.4845 16.0252 11.0281C16.0179 11.0266 16.0105 11.0249 16.0033 11.023ZM23.5449 19.9333C23.4901 18.3429 22.8596 16.8622 21.7764 15.7707C21.5638 15.9279 21.3419 16.0745 21.1102 16.2083C20.7495 16.4165 20.3704 16.5926 19.9799 16.7346C19.9351 16.8629 19.8854 16.989 19.8311 17.1126L20.413 17.4486C20.6932 17.6103 20.7893 17.9687 20.6274 18.2489C20.5189 18.4369 20.322 18.542 20.1195 18.542C20.0201 18.542 19.9193 18.5167 19.827 18.4634L19.2437 18.1266C19.1636 18.235 19.0797 18.3404 18.9917 18.4422C19.0642 18.8524 19.1015 19.2698 19.1015 19.6874C19.1015 19.9549 19.0855 20.2203 19.0556 20.4831C20.5426 20.8755 22.1401 20.6812 23.5449 19.9333ZM15 24.8666C16.8152 23.7309 17.9297 21.7751 17.9297 19.6875C17.9297 19.5875 17.9269 19.4876 17.9219 19.3877C17.2384 19.8443 16.4428 20.1455 15.586 20.2407V20.912C15.586 21.2356 15.3236 21.498 15 21.498C14.6764 21.498 14.4141 21.2356 14.4141 20.912V20.2407C13.5572 20.1455 12.7616 19.8443 12.0782 19.3877C12.0732 19.4875 12.0703 19.5875 12.0703 19.6874C12.0703 21.7751 13.1849 23.7309 15 24.8666ZM10.9443 20.4831C10.9145 20.2204 10.8984 19.955 10.8984 19.6875C10.8984 19.2699 10.9357 18.8525 11.0083 18.4423C10.9204 18.3405 10.8364 18.2351 10.7563 18.1267L10.173 18.4635C10.0807 18.5167 9.98001 18.5421 9.88064 18.5421C9.67814 18.5421 9.4812 18.437 9.37263 18.249C9.21079 17.9688 9.30683 17.6104 9.58708 17.4486L10.1689 17.1127C10.1146 16.9891 10.0649 16.863 10.0201 16.7347C9.62962 16.5926 9.25046 16.4165 8.88976 16.2083C8.65814 16.0746 8.43624 15.9279 8.22367 15.7707C7.14044 16.8622 6.50997 18.343 6.45513 19.9335C7.85986 20.6812 9.45741 20.8754 10.9443 20.4831ZM6.45531 10.0667C6.53119 12.2065 7.66767 14.1496 9.47569 15.1935C9.56177 15.2431 9.64919 15.2904 9.73761 15.3357C9.73058 15.2247 9.72659 15.1128 9.72659 15C9.72659 14.2491 9.88468 13.5346 10.1688 12.8873L9.58702 12.5514C9.30677 12.3896 9.21073 12.0313 9.37257 11.751C9.53435 11.4708 9.89271 11.3747 10.173 11.5365L10.7563 11.8733C11.253 11.2008 11.9055 10.6503 12.6601 10.2751C12.5765 10.2211 12.4916 10.1689 12.4054 10.1191C10.5974 9.07522 8.34624 9.06256 6.45531 10.0667ZM15 5.13315C13.65 5.97585 12.6829 7.26233 12.2793 8.7461C12.5217 8.85157 12.7597 8.9704 12.9913 9.10417C13.352 9.31235 13.6939 9.55264 14.0121 9.81971C14.1444 9.79452 14.2784 9.7743 14.414 9.75924V9.08788C14.414 8.76426 14.6764 8.50194 15 8.50194C15.3236 8.50194 15.5859 8.76426 15.5859 9.08788V9.75924C15.7215 9.7743 15.8555 9.79452 15.9878 9.81971C16.306 9.5527 16.648 9.31235 17.0086 9.10417C17.2402 8.97045 17.4781 8.85163 17.7206 8.7461C17.3171 7.26233 16.3499 5.9759 15 5.13315Z" fill="#E4988D"/>
<path d="M17.8575 3.57022C17.5339 3.57022 17.2716 3.3079 17.2716 2.98428C17.2716 2.66067 17.5339 2.39835 17.8575 2.39835H17.8579C18.1815 2.39835 18.4436 2.66067 18.4436 2.98428C18.4436 3.3079 18.1811 3.57022 17.8575 3.57022Z" fill="#E4988D"/>
</g>
<defs>
<clipPath id="clip0_51252_1448">
<rect width="50" height="50" fill="white" transform="matrix(-1 0 0 1 50 0)"/>
</clipPath>
</defs>
</svg>
